<?xml version="1.0" standalone="no"?><!DOCTYPE svg PUBLIC "-//W3C//DTD SVG 1.1//EN" "http://www.w3.org/Graphics/SVG/1.1/DTD/svg11.dtd"><svg t="1748836939275" class="icon" viewBox="0 0 1024 1024" version="1.1" xmlns="http://www.w3.org/2000/svg" p-id="20660" xmlns:xlink="http://www.w3.org/1999/xlink" width="200" height="200"><path d="M729.7 137.4h-73.5v60h73.5c38.6 0 70 31.4 70 70v441.8c0 38.6-31.4 70-70 70H287.9c-38.6 0-70-31.4-70-70V267.4c0-38.6 31.4-70 70-70h64.3v-60h-64.3c-71.7 0-130 58.3-130 130v441.8c0 71.7 58.3 130 130 130h441.8c71.7 0 130-58.3 130-130V267.4c0-71.7-58.3-130-130-130z" fill="#000002" p-id="20661"></path><path d="M536.4 257.3h-64.3c-49.5 0-89.9-40.3-89.9-89.9s40.3-89.9 89.9-89.9h64.3c49.5 0 89.9 40.3 89.9 89.9s-40.4 89.9-89.9 89.9z m-64.3-119.7c-16.5 0-29.9 13.4-29.9 29.9s13.4 29.9 29.9 29.9h64.3c16.5 0 29.9-13.4 29.9-29.9s-13.4-29.9-29.9-29.9h-64.3zM508.8 733.9c-59.1 0-114.6-23-156.4-64.8s-64.8-97.3-64.8-156.4 23-114.6 64.8-156.4 97.3-64.8 156.4-64.8c59.1 0 114.6 23 156.4 64.8S730 453.6 730 512.7s-23 114.6-64.8 156.4-97.3 64.8-156.4 64.8z m0-382.3c-88.9 0-161.1 72.3-161.1 161.1S420 673.9 508.8 673.9c88.9 0 161.1-72.3 161.1-161.1s-72.2-161.2-161.1-161.2z" fill="#000002" p-id="20662"></path><path d="M471.2 610.7c-7.4 0-14.8-2.7-20.5-8.1l-66.9-62.8c-12.1-11.3-12.7-30.3-1.3-42.4 11.3-12.1 30.3-12.7 42.4-1.3l46.1 43.2 111.5-107.9c11.9-11.5 30.9-11.2 42.4 0.7 11.5 11.9 11.2 30.9-0.7 42.4L492.1 602.3c-5.8 5.6-13.4 8.4-20.9 8.4z" fill="#000002" p-id="20663"></path></svg>