<?xml version="1.0" standalone="no"?><!DOCTYPE svg PUBLIC "-//W3C//DTD SVG 1.1//EN" "http://www.w3.org/Graphics/SVG/1.1/DTD/svg11.dtd"><svg t="1748837030144" class="icon" viewBox="0 0 1024 1024" version="1.1" xmlns="http://www.w3.org/2000/svg" p-id="23647" xmlns:xlink="http://www.w3.org/1999/xlink" width="200" height="200"><path d="M795.45193 254.92a63.55 63.55 0 0 0-63.477 63.495 62.97 62.97 0 0 0 2.368 17.17L619.40893 458.763a63.26 63.26 0 0 0-59.031 18.562l-82.907-17.749a63.043 63.043 0 0 0-59.97-42.655 63.567 63.567 0 0 0-63.478 63.495 62.356 62.356 0 0 0 0.868 10.284l-106.638 91.384a62.682 62.682 0 0 0-19.701-3.217 63.567 63.567 0 0 0-63.495 63.495 63.043 63.043 0 0 0 18.598 44.95 63.08 63.08 0 0 0 44.897 18.6 63.55 63.55 0 0 0 63.458-63.496 62.483 62.483 0 0 0-0.867-10.266l106.638-91.402a62.7 62.7 0 0 0 19.72 3.163 62.808 62.808 0 0 0 46.089-19.882l82.943 17.786a63.043 63.043 0 0 0 59.952 42.583 63.477 63.477 0 0 0 61.092-80.666l114.952-123.176a62.917 62.917 0 0 0 12.923 1.337 63.55 63.55 0 0 0 63.387-63.477 63.55 63.55 0 0 0-63.387-63.495z" p-id="23648"></path><path d="M511.99293 0C229.67293 0 0.00093 229.67 0.00093 511.991a507.888 507.888 0 0 0 95.956 298.063 32.86 32.86 0 0 0 3 4.14A517.92 517.92 0 0 0 276.72093 966.65a512.262 512.262 0 0 0 235.273 57.332 511.07 511.07 0 0 0 254.54-67.87 516.564 516.564 0 0 0 182.858-178.23 33.456 33.456 0 0 0 2.549-4.265A510.563 510.563 0 0 0 1024.00093 511.99C1024.00093 229.671 794.31393 0 511.99093 0z m0 958.083a445.062 445.062 0 0 1-329.838-146.059 283.568 283.568 0 0 1 43.595-3.38 257.125 257.125 0 0 1 88.239 15.22c31.901 11.603 62.067 17.242 92.179 17.242 44.517 0 81.804-12.02 121.296-24.744 21.02-6.778 42.764-13.79 66.351-19.032a214.343 214.343 0 0 1 46.993-5.422c29.227 0 53.627 6.651 79.636 13.718 22.918 6.218 46.614 12.652 73.418 13.935 3.615 0.181 7.23 0.254 10.97 0.254a259.782 259.782 0 0 0 31.63-2.007 444.52 444.52 0 0 1-324.47 140.275z m285.014-204.402c-19.629-0.922-38.878-6.164-59.266-11.694l-2.838 10.392 2.657-10.519c-27.473-7.465-58.615-15.942-96.842-15.942a278.742 278.742 0 0 0-61.163 6.96c-26.533 5.91-49.777 13.392-72.298 20.658-35.859 11.55-66.875 21.545-100.999 21.545-22.376 0-45.186-4.338-69.694-13.267a324.109 324.109 0 0 0-111.14-19.358 342.526 342.526 0 0 0-87.967 11.423A443.272 443.272 0 0 1 65.90093 511.991c0-245.973 200.119-446.092 446.092-446.092S958.08493 266.018 958.08493 511.99a445.062 445.062 0 0 1-58.886 221.266c-17.297 7.23-55.127 20.604-94.529 20.622a178.4 178.4 0 0 1-7.663-0.198z" p-id="23649"></path></svg>